<?xml version="1.0" encoding="UTF-8"?>
<svg xmlns="http://www.w3.org/2000/svg" xmlns:xlink="http://www.w3.org/1999/xlink" width="113pt" height="94pt" viewBox="0 0 113 94" version="1.1">
<g id="surface53">
<path style=" stroke:none;fill-rule:nonzero;fill:rgb(90.196079%,90.196079%,90.196079%);fill-opacity:1;" d="M 85.179688 83.808594 C 115.5 76.320312 107.769531 33.066406 89.25 44.445312 C 86.222656 17.199219 49.78125 -2.277344 43.742188 19.617188 C 39.796875 33.914062 25.628906 34.210938 10.527344 50.78125 C -9.179688 74.835938 71.53125 84.289062 85.179688 83.808594 Z M 85.179688 83.808594 "/>
<path style=" stroke:none;fill-rule:nonzero;fill:rgb(0%,0%,0%);fill-opacity:1;" d="M 49.484375 50.433594 L 52.175781 51.289062 C 51.765625 52.789062 51.078125 53.902344 50.121094 54.632812 C 49.160156 55.363281 47.941406 55.726562 46.464844 55.726562 C 44.636719 55.726562 43.136719 55.101562 41.960938 53.851562 C 40.785156 52.605469 40.195312 50.898438 40.195312 48.734375 C 40.195312 46.445312 40.789062 44.671875 41.96875 43.402344 C 43.152344 42.132812 44.707031 41.503906 46.632812 41.503906 C 48.316406 41.503906 49.679688 42 50.730469 42.996094 C 51.359375 43.582031 51.828125 44.425781 52.140625 45.527344 L 49.390625 46.183594 C 49.226562 45.472656 48.886719 44.910156 48.375 44.496094 C 47.859375 44.082031 47.230469 43.875 46.492188 43.875 C 45.472656 43.875 44.648438 44.242188 44.007812 44.972656 C 43.375 45.707031 43.058594 46.890625 43.058594 48.53125 C 43.058594 50.269531 43.371094 51.507812 43.996094 52.246094 C 44.621094 52.984375 45.433594 53.351562 46.433594 53.351562 C 47.171875 53.351562 47.808594 53.117188 48.339844 52.648438 C 48.871094 52.179688 49.253906 51.441406 49.484375 50.433594 Z M 53.996094 48.699219 C 53.996094 47.296875 54.207031 46.121094 54.625 45.171875 C 54.9375 44.472656 55.363281 43.84375 55.90625 43.285156 C 56.449219 42.730469 57.039062 42.316406 57.683594 42.046875 C 58.539062 41.683594 59.527344 41.503906 60.648438 41.503906 C 62.675781 41.503906 64.296875 42.132812 65.515625 43.390625 C 66.730469 44.644531 67.335938 46.394531 67.335938 48.632812 C 67.335938 50.851562 66.734375 52.589844 65.527344 53.847656 C 64.320312 55.101562 62.707031 55.726562 60.6875 55.726562 C 58.640625 55.726562 57.015625 55.101562 55.808594 53.851562 C 54.601562 52.605469 53.996094 50.886719 53.996094 48.699219 Z M 56.859375 48.605469 C 56.859375 50.164062 57.21875 51.34375 57.9375 52.144531 C 58.65625 52.949219 59.570312 53.351562 60.675781 53.351562 C 61.785156 53.351562 62.695312 52.953125 63.402344 52.15625 C 64.109375 51.359375 64.46875 50.164062 64.46875 48.566406 C 64.46875 46.992188 64.121094 45.816406 63.433594 45.039062 C 62.742188 44.265625 61.820312 43.875 60.675781 43.875 C 59.53125 43.875 58.609375 44.269531 57.910156 45.050781 C 57.207031 45.835938 56.859375 47.023438 56.859375 48.605469 Z M 39.285156 38.097656 "/>
<path style=" stroke:none;fill-rule:nonzero;fill:rgb(0%,0%,0%);fill-opacity:1;" d="M 74.425781 56.394531 L 74.425781 57.988281 L 68.417969 57.988281 C 68.480469 57.386719 68.679688 56.8125 69.003906 56.277344 C 69.328125 55.738281 69.972656 55.023438 70.929688 54.132812 C 71.703125 53.414062 72.175781 52.925781 72.351562 52.671875 C 72.589844 52.316406 72.703125 51.964844 72.703125 51.621094 C 72.703125 51.238281 72.601562 50.945312 72.398438 50.738281 C 72.191406 50.535156 71.90625 50.429688 71.546875 50.429688 C 71.1875 50.429688 70.902344 50.539062 70.691406 50.753906 C 70.480469 50.96875 70.359375 51.328125 70.328125 51.828125 L 68.621094 51.65625 C 68.71875 50.710938 69.039062 50.039062 69.578125 49.628906 C 70.113281 49.214844 70.785156 49.011719 71.585938 49.011719 C 72.46875 49.011719 73.164062 49.25 73.667969 49.722656 C 74.171875 50.199219 74.425781 50.789062 74.425781 51.496094 C 74.425781 51.902344 74.351562 52.28125 74.207031 52.648438 C 74.066406 53.011719 73.835938 53.394531 73.523438 53.789062 C 73.3125 54.054688 72.941406 54.433594 72.402344 54.929688 C 71.859375 55.429688 71.515625 55.757812 71.371094 55.917969 C 71.226562 56.082031 71.113281 56.242188 71.023438 56.394531 Z M 68.105469 46.683594 "/>
</g>
</svg>
