<?xml version="1.0" encoding="UTF-8"?>
<svg xmlns="http://www.w3.org/2000/svg" xmlns:xlink="http://www.w3.org/1999/xlink" width="94pt" height="113pt" viewBox="0 0 94 113" version="1.1">
<g id="surface61">
<path style="fill-rule:nonzero;fill:rgb(50.980395%,38.82353%,32.941177%);fill-opacity:1;stroke-width:0.627425;stroke-linecap:butt;stroke-linejoin:miter;stroke:rgb(0%,0%,0%);stroke-opacity:1;stroke-miterlimit:4;" d="M 4.678731 0.305751 L 8.267585 12.32488 C 11.440227 20.433179 12.472906 26.699931 8.086965 31.710192 L 2.805773 40.733374 C -1.64692 47.180748 0.312422 52.677899 5.145988 57.747058 C 10.953336 62.623817 18.080001 64.221917 21.770945 71.694117 C 22.713314 73.598487 26.121548 77.784176 27.381966 79.924138 C 31.461638 86.198744 33.617307 89.595198 39.330418 93.804446 C 40.241375 94.37772 41.018829 95.104129 41.898373 95.70489 C 42.750432 96.289944 43.508253 97.004573 44.513447 97.369741 C 44.847202 97.479684 45.283048 97.542509 45.557905 97.534656 L 46.472789 97.534656 C 47.006798 97.672085 47.62719 97.554288 48.027697 97.958722 C 48.981846 98.500584 49.873169 99.274112 50.956894 99.51363 C 52.103442 99.690324 53.277477 99.603941 54.435805 99.603941 C 54.965888 99.603941 55.236819 99.066005 55.531309 98.689058 C 55.68837 97.734909 56.175261 98.480951 56.175261 98.508437 C 56.308763 98.685131 56.51687 98.842192 56.724976 98.963915 C 57.231499 99.262332 57.789068 99.478291 58.370195 99.603941 C 59.336123 99.741369 60.321684 99.682471 61.295465 99.603941 C 61.695972 99.51363 62.065066 99.297671 62.394895 99.058152 C 62.536251 98.956062 62.614781 98.814707 62.76399 98.689058 C 62.787549 98.677278 63.333338 98.689058 63.404015 98.689058 L 64.774377 98.689058 C 65.351578 98.669425 65.952338 98.692984 66.490273 98.492731 C 66.639482 98.437759 66.769057 98.343522 66.879 98.233579 C 67.102813 97.888044 67.428716 97.640672 67.766398 97.41686 C 67.947018 97.31477 68.162978 97.283357 68.343599 97.181267 C 68.732326 96.953528 69.062155 96.643332 69.403764 96.344915 C 69.655062 96.117176 69.776785 95.944408 70.083054 95.57924 C 70.169438 95.414326 70.181218 95.217999 70.189071 95.029525 C 70.204777 94.691843 70.21263 94.444471 70.083054 94.024332 C 69.90636 93.835858 69.721813 93.647384 69.533339 93.474617 C 69.411617 93.352894 69.282041 93.235098 69.168171 93.109449 C 68.995404 92.924901 69.015036 92.571513 69.081788 92.343774 C 69.238849 92.061063 69.604017 91.915782 69.898507 91.829398 C 69.898507 91.829398 70.342206 91.821545 70.538533 91.739087 C 70.860509 91.601659 71.107881 91.330728 71.363105 91.095135 C 71.637963 90.847764 71.897114 90.576832 72.120927 90.282342 C 72.32118 90.023191 72.588185 89.716921 72.643156 89.449916 L 72.827704 88.260176 L 72.827704 87.435603 C 72.827704 86.944786 72.733467 86.461822 72.643156 85.974931 C 72.529287 85.562645 72.360446 85.162138 72.187678 84.781264 C 72.175899 84.628129 72.065956 84.474994 71.944233 84.372904 C 71.826437 84.235475 71.771465 84.239402 71.728273 84.235475 C 71.665449 84.223696 71.543726 84.231549 71.453416 84.235475 L 69.662915 84.235475 L 68.708767 84.141239 L 68.433909 84.141239 C 68.198317 84.074487 68.088374 83.976324 67.793883 83.921353 C 67.483687 83.827116 67.40123 83.823189 67.153858 83.776071 C 66.859368 83.658275 66.659114 83.442315 66.356771 83.28918 C 65.928778 83.092853 65.932705 83.128192 65.712819 83.085 C 65.465447 83.041808 65.198443 83.049661 64.958924 83.041808 C 64.542711 82.884747 64.216808 82.58633 63.824155 82.397856 L 61.307245 80.858654 C 60.278492 80.191143 58.974882 79.578603 57.828333 79.111345 L 57.054805 78.871826 L 56.830993 78.805075 C 55.209333 74.375942 54.247331 71.289684 53.516996 66.228378 C 52.857337 61.673595 51.035424 55.395063 49.162466 51.35073 C 46.248976 44.534262 45.679628 36.284608 43.885201 26.012788 C 42.883934 18.348188 41.953345 8.908793 41.207303 0.313604 L 4.682657 0.313604 Z M 57.054805 78.871826 Z M 57.054805 78.871826 " transform="matrix(0.994833,0,0,0.994833,10.61888,6.758329)"/>
<path style="fill-rule:nonzero;fill:rgb(36.470589%,27.450982%,22.745098%);fill-opacity:1;stroke-width:0.627425;stroke-linecap:butt;stroke-linejoin:miter;stroke:rgb(0%,0%,0%);stroke-opacity:1;stroke-miterlimit:4;" d="M 16.741052 29.998222 C 16.124585 31.655221 16.368031 35.385431 16.352325 36.987458 C 16.309133 40.666623 17.098367 41.966307 18.661128 44.247625 C 19.674175 45.731855 21.519647 48.193794 21.916227 47.467385 C 18.994884 42.500316 17.247575 36.692968 16.741052 29.998222 Z M 16.741052 29.998222 " transform="matrix(0.994833,0,0,0.994833,10.61888,6.758329)"/>
</g>
</svg>
