<?xml version="1.0" encoding="UTF-8"?>
<svg xmlns="http://www.w3.org/2000/svg" xmlns:xlink="http://www.w3.org/1999/xlink" width="50pt" height="70pt" viewBox="0 0 50 70" version="1.1">
<g id="surface68">
<path style="fill-rule:nonzero;fill:rgb(71.764708%,80.784315%,55.29412%);fill-opacity:1;stroke-width:0.029826;stroke-linecap:butt;stroke-linejoin:round;stroke:rgb(40.000001%,40.000001%,40.000001%);stroke-opacity:1;stroke-miterlimit:4;" d="M 243.948612 566.743394 C 241.667996 566.738162 239.392623 566.800944 237.122493 567.010215 C 234.564009 567.245646 231.979311 567.502004 229.504711 568.223992 C 228.629165 568.501277 227.737889 568.841343 227.04584 569.458695 C 226.799429 569.516245 226.68933 569.783066 226.872828 569.976643 C 227.234581 570.672471 227.617305 571.373532 228.141585 571.959493 C 228.990917 572.571613 230.023748 572.848898 231.014636 573.14711 C 234.35954 574.041747 237.819784 574.402741 241.269544 574.523072 C 246.014273 574.643403 250.769489 574.172542 255.425091 573.277905 C 256.667633 573.011084 257.931147 572.786116 259.105533 572.289096 C 259.734668 571.92287 260.117392 571.263664 260.494874 570.656776 C 260.636429 570.342868 260.909054 570.034193 260.88284 569.667967 C 260.720314 569.416841 260.416232 569.280814 260.180306 569.09247 C 258.74378 568.150747 257.024143 567.847303 255.36742 567.528163 C 251.59785 566.884652 247.765367 566.717235 243.948612 566.743394 Z M 243.948612 566.743394 " transform="matrix(0.74507,0,0,0.746637,-156.82132,-368.073328)"/>
<path style="fill-rule:nonzero;fill:rgb(84.313726%,92.941177%,67.058825%);fill-opacity:1;stroke-width:0.0421803;stroke-linecap:butt;stroke-linejoin:round;stroke:rgb(40.000001%,40.000001%,40.000001%);stroke-opacity:1;stroke-miterlimit:4;" d="M 243.15695 559.309014 C 238.401735 559.335173 233.615063 559.544445 228.938489 560.449545 C 227.900416 560.705903 226.773215 560.883784 225.908154 561.558686 C 225.583101 561.794116 225.756113 562.254514 226.075923 562.401005 C 227.276523 563.112529 228.692078 563.311337 230.044719 563.578158 C 233.504964 564.13796 237.012394 564.404782 240.514581 564.472795 C 243.90667 564.478027 247.298758 564.504186 250.685604 564.326305 C 253.878466 564.085642 257.097542 563.84498 260.211763 563.060211 C 260.966725 562.830012 261.858 562.625972 262.324609 561.940607 C 262.036255 561.297096 261.249836 561.098288 260.636429 560.873321 C 257.89969 560.088552 255.037124 559.847889 252.211257 559.601995 C 249.201893 559.3561 246.1768 559.298551 243.15695 559.309014 Z M 243.15695 559.309014 " transform="matrix(0.74507,0,0,0.746637,-156.82132,-368.073328)"/>
<path style="fill-rule:nonzero;fill:rgb(84.313726%,92.941177%,67.058825%);fill-opacity:1;stroke-width:0.0421803;stroke-linecap:butt;stroke-linejoin:round;stroke:rgb(40.000001%,40.000001%,40.000001%);stroke-opacity:1;stroke-miterlimit:4;" d="M 261.98907 562.557958 C 260.473902 563.358423 258.754266 563.562463 257.081814 563.850212 C 251.173184 564.702994 245.170183 564.734385 239.209125 564.598358 C 235.78558 564.462332 232.330578 564.19551 228.969946 563.551999 C 227.958087 563.353191 226.961956 563.065443 226.033981 562.615508 C 225.646014 562.594581 225.75087 563.11776 225.719413 563.368887 C 225.708928 565.079683 225.78757 566.816639 226.306606 568.464654 C 226.46389 568.88843 226.537289 569.390682 226.867585 569.720285 C 227.245067 569.667967 227.460021 569.233728 227.827017 569.09247 C 229.525682 568.203065 231.428817 567.920548 233.295252 567.611872 C 238.532805 566.863725 243.875213 566.79048 249.154708 567.015447 C 252.226986 567.240414 255.320235 567.491541 258.282414 568.391409 C 259.163204 568.658231 260.002051 569.066311 260.683614 569.694126 C 261.076824 569.809225 261.082067 569.23896 261.218379 569.003529 C 261.842272 567.209024 262.188296 565.320346 262.314123 563.426436 C 262.272181 563.154383 262.429465 562.463786 261.98907 562.557958 Z M 261.98907 562.557958 " transform="matrix(0.74507,0,0,0.746637,-156.82132,-368.073328)"/>
<path style="fill:none;stroke-width:0.50278;stroke-linecap:butt;stroke-linejoin:round;stroke:rgb(40.000001%,40.000001%,40.000001%);stroke-opacity:1;stroke-miterlimit:4;" d="M 196.782778 -82.572012 C 196.782778 -81.453716 190.294819 -80.543384 182.815971 -80.543384 C 175.337124 -80.543384 169.21485 -81.445868 169.21485 -82.568088 C 169.21485 -83.686384 175.337124 -84.596716 182.815971 -84.596716 C 190.294819 -84.596716 196.782778 -83.690308 196.782778 -82.572012 Z M 196.782778 -82.572012 " transform="matrix(0.993427,0,0,0.995516,-156.82132,133.666577)"/>
<path style="fill:none;stroke-width:0.50278;stroke-linecap:butt;stroke-linejoin:round;stroke:rgb(40.000001%,40.000001%,40.000001%);stroke-opacity:1;stroke-miterlimit:4;" d="M 172.116737 121.559343 C 175.101198 120.884442 191.15988 120.955071 193.605644 121.539724 C 193.660693 121.151263 193.236027 120.896213 192.728786 120.751031 C 192.394558 120.652935 192.736651 119.864242 192.819225 119.538563 C 193.216366 117.953329 195.040859 116.062035 195.874464 113.951006 C 197.907357 101.327995 196.503599 92.142272 196.810302 81.249676 C 196.56258 78.707024 195.862667 75.964256 194.541483 74.842036 C 193.86123 74.261307 187.133413 72.903656 181.215608 73.044914 C 175.655624 73.178325 171.467941 74.351555 170.917448 75.140248 C 170.457393 75.799454 169.089023 77.596575 169.218782 81.449792 L 169.04577 110.344992 C 169.474368 114.943739 172.64757 117.325514 172.958206 119.413 C 173.005391 119.722984 173.316027 120.523448 172.962138 120.66863 C 172.419509 120.896213 172.093145 121.123796 172.116737 121.559343 Z M 172.116737 121.559343 " transform="matrix(0.993427,0,0,-0.995516,-156.82132,133.666577)"/>
<path style="fill:none;stroke-width:0.50278;stroke-linecap:butt;stroke-linejoin:round;stroke:rgb(40.000001%,40.000001%,40.000001%);stroke-opacity:1;stroke-miterlimit:4;" d="M 172.116737 123.058252 C 175.101198 122.383351 191.15988 122.45398 193.605644 123.042557 " transform="matrix(0.993427,0,0,-0.995516,-156.82132,133.666577)"/>
<path style="fill:none;stroke-width:0.50278;stroke-linecap:butt;stroke-linejoin:round;stroke:rgb(40.000001%,40.000001%,40.000001%);stroke-opacity:1;stroke-miterlimit:4;" d="M 172.116737 124.557162 C 175.101198 123.88226 191.15988 123.956813 193.605644 124.541466 " transform="matrix(0.993427,0,0,-0.995516,-156.82132,133.666577)"/>
<path style="fill:none;stroke-width:0.50278;stroke-linecap:butt;stroke-linejoin:round;stroke:rgb(40.000001%,40.000001%,40.000001%);stroke-opacity:1;stroke-miterlimit:4;" d="M 172.116737 121.559343 C 172.875632 121.822241 173.618798 122.09691 172.116737 123.058252 C 172.977866 123.383932 173.457582 123.788088 172.116737 124.557162 C 179.579856 123.88226 184.966828 123.819479 193.605644 124.541466 C 193.153453 124.007823 192.834953 123.485952 193.605644 123.042557 C 193.350058 122.599163 192.394558 122.308798 193.605644 121.539724 " transform="matrix(0.993427,0,0,-0.995516,-156.82132,133.666577)"/>
<path style="fill:none;stroke-width:0.50278;stroke-linecap:butt;stroke-linejoin:round;stroke:rgb(40.000001%,40.000001%,40.000001%);stroke-opacity:1;stroke-miterlimit:4;" d="M 172.116737 124.706268 C 175.101198 125.381169 191.15988 125.31054 193.605644 124.721963 " transform="matrix(0.993427,0,0,-0.995516,-156.82132,133.666577)"/>
</g>
</svg>
